<svg width="45" height="32" viewBox="0 0 45 32" fill="none" xmlns="http://www.w3.org/2000/svg">
<path fill-rule="evenodd" clip-rule="evenodd" d="M1.69743 0C1.24725 0 0.815498 0.183789 0.497167 0.510936C0.178836 0.838083 0 1.28179 0 1.74444C0 2.2071 0.178836 2.65081 0.497167 2.97795C0.815498 3.3051 1.24725 3.48889 1.69743 3.48889H42.4359C42.8861 3.48889 43.3178 3.3051 43.6361 2.97795C43.9545 2.65081 44.1333 2.2071 44.1333 1.74444C44.1333 1.28179 43.9545 0.838083 43.6361 0.510936C43.3178 0.183789 42.8861 0 42.4359 0H1.69743ZM0 15.7C0 15.2373 0.178836 14.7936 0.497167 14.4665C0.815498 14.1393 1.24725 13.9556 1.69743 13.9556H42.4359C42.8861 13.9556 43.3178 14.1393 43.6361 14.4665C43.9545 14.7936 44.1333 15.2373 44.1333 15.7C44.1333 16.1627 43.9545 16.6064 43.6361 16.9335C43.3178 17.2607 42.8861 17.4444 42.4359 17.4444H1.69743C1.24725 17.4444 0.815498 17.2607 0.497167 16.9335C0.178836 16.6064 0 16.1627 0 15.7ZM0 29.6556C0 29.1929 0.178836 28.7492 0.497167 28.422C0.815498 28.0949 1.24725 27.9111 1.69743 27.9111H42.4359C42.8861 27.9111 43.3178 28.0949 43.6361 28.422C43.9545 28.7492 44.1333 29.1929 44.1333 29.6556C44.1333 30.1182 43.9545 30.5619 43.6361 30.8891C43.3178 31.2162 42.8861 31.4 42.4359 31.4H1.69743C1.24725 31.4 0.815498 31.2162 0.497167 30.8891C0.178836 30.5619 0 30.1182 0 29.6556Z" fill="black"/>
</svg>
