<svg width="49" height="49" viewBox="0 0 49 49" fill="none" xmlns="http://www.w3.org/2000/svg">
<path d="M18.1436 43.5555C19.835 43.5555 21.2061 42.1844 21.2061 40.493C21.2061 38.8017 19.835 37.4305 18.1436 37.4305C16.4522 37.4305 15.0811 38.8017 15.0811 40.493C15.0811 42.1844 16.4522 43.5555 18.1436 43.5555Z" fill="black"/>
<path d="M36.75 43.5555C38.4414 43.5555 39.8125 42.1844 39.8125 40.493C39.8125 38.8017 38.4414 37.4305 36.75 37.4305C35.0586 37.4305 33.6875 38.8017 33.6875 40.493C33.6875 42.1844 35.0586 43.5555 36.75 43.5555Z" fill="black"/>
<path d="M45.0255 7.30916C44.8989 7.15302 44.7392 7.02688 44.558 6.9398C44.3768 6.85273 44.1785 6.80687 43.9775 6.80554H15.6392L16.5239 9.52777H42.1944L38.5603 25.8611H18.1436L11.9233 6.16582C11.856 5.95684 11.7392 5.76723 11.5828 5.61317C11.4263 5.45911 11.235 5.34518 11.025 5.2811L5.44443 3.5661C5.27284 3.51337 5.09254 3.49496 4.91383 3.51191C4.73512 3.52886 4.56149 3.58084 4.40287 3.66489C4.08253 3.83464 3.84273 4.12469 3.73624 4.47124C3.62975 4.81779 3.66528 5.19245 3.83503 5.5128C4.00477 5.83315 4.29483 6.07294 4.64138 6.17943L9.52777 7.67666L15.7753 27.4128L13.543 29.2367L13.3661 29.4136C12.8139 30.0499 12.501 30.8588 12.4811 31.7011C12.4612 32.5433 12.7357 33.3661 13.2572 34.0278C13.6282 34.4789 14.0996 34.837 14.6338 35.0733C15.1679 35.3097 15.7499 35.4177 16.3333 35.3889H39.0503C39.4113 35.3889 39.7575 35.2455 40.0127 34.9902C40.268 34.735 40.4114 34.3888 40.4114 34.0278C40.4114 33.6668 40.268 33.3206 40.0127 33.0653C39.7575 32.8101 39.4113 32.6667 39.0503 32.6667H16.1155C15.9588 32.6613 15.8061 32.6156 15.6722 32.534C15.5382 32.4524 15.4276 32.3377 15.351 32.2008C15.2744 32.064 15.2343 31.9097 15.2347 31.7529C15.2351 31.596 15.276 31.442 15.3533 31.3055L18.6336 28.5833H39.6492C39.9638 28.591 40.2714 28.4894 40.5195 28.2959C40.7677 28.1023 40.9411 27.8287 41.0103 27.5217L45.325 8.4661C45.3664 8.26318 45.3609 8.0535 45.309 7.85301C45.2571 7.65252 45.1602 7.46651 45.0255 7.30916Z" fill="black"/>
</svg>
