<svg width="65" height="65" viewBox="0 0 65 65" fill="none" xmlns="http://www.w3.org/2000/svg">
<path d="M32.5 52C25.7292 52 19.7437 48.5334 16.25 43.3334C16.3312 37.9167 27.0833 34.9375 32.5 34.9375C37.9167 34.9375 48.6687 37.9167 48.75 43.3334C46.9595 45.9995 44.5409 48.1844 41.7071 49.6957C38.8734 51.207 35.7115 51.9984 32.5 52ZM32.5 13.5417C34.6549 13.5417 36.7215 14.3977 38.2452 15.9214C39.769 17.4452 40.625 19.5118 40.625 21.6667C40.625 23.8216 39.769 25.8882 38.2452 27.4119C36.7215 28.9357 34.6549 29.7917 32.5 29.7917C30.3451 29.7917 28.2785 28.9357 26.7547 27.4119C25.231 25.8882 24.375 23.8216 24.375 21.6667C24.375 19.5118 25.231 17.4452 26.7547 15.9214C28.2785 14.3977 30.3451 13.5417 32.5 13.5417ZM32.5 5.41669C28.9434 5.41669 25.4215 6.11722 22.1356 7.47828C18.8497 8.83935 15.8641 10.8343 13.3492 13.3492C8.27007 18.4283 5.41666 25.3171 5.41666 32.5C5.41666 39.683 8.27007 46.5717 13.3492 51.6508C15.8641 54.1658 18.8497 56.1607 22.1356 57.5218C25.4215 58.8828 28.9434 59.5834 32.5 59.5834C39.6829 59.5834 46.5717 56.7299 51.6508 51.6508C56.7299 46.5717 59.5833 39.683 59.5833 32.5C59.5833 17.5229 47.3958 5.41669 32.5 5.41669Z" fill="black"/>
</svg>
