<svg width="40" height="40" viewBox="0 0 40 40" fill="none" xmlns="http://www.w3.org/2000/svg">
<path d="M39.6875 37.6549L28.8315 26.7989C31.4403 23.667 32.7412 19.65 32.4636 15.5834C32.186 11.5168 30.3513 7.71376 27.3412 4.96544C24.331 2.21712 20.3772 0.735108 16.3022 0.8277C12.2272 0.920291 8.34476 2.58036 5.46255 5.46257C2.58035 8.34477 0.920276 12.2272 0.827685 16.3022C0.735093 20.3772 2.21711 24.331 4.96543 27.3412C7.71375 30.3513 11.5168 32.186 15.5834 32.4636C19.65 32.7412 23.667 31.4403 26.7989 28.8315L37.6549 39.6875L39.6875 37.6549ZM3.75 16.6875C3.75 14.1287 4.50877 11.6274 5.93036 9.49982C7.35195 7.37226 9.37251 5.71403 11.7365 4.73482C14.1006 3.75561 16.7019 3.49941 19.2115 3.9986C21.7211 4.4978 24.0264 5.72998 25.8357 7.53932C27.645 9.34866 28.8772 11.6539 29.3764 14.1635C29.8756 16.6732 29.6194 19.2745 28.6402 21.6385C27.661 24.0025 26.0028 26.0231 23.8752 27.4447C21.7476 28.8662 19.2463 29.625 16.6875 29.625C13.2574 29.6212 9.96894 28.2569 7.54351 25.8315C5.11808 23.4061 3.7538 20.1176 3.75 16.6875Z" fill="black"/>
</svg>
